<?xml version="1.0" encoding="utf-8"?>
<!-- Generator: Adobe Illustrator 21.1.0, SVG Export Plug-In . SVG Version: 6.00 Build 0)  -->
<svg version="1.1" id="图层_1" xmlns="http://www.w3.org/2000/svg" xmlns:xlink="http://www.w3.org/1999/xlink" x="0px" y="0px"
	 viewBox="0 0 640 640" style="enable-background:new 0 0 640 640;" xml:space="preserve">
<style type="text/css">
	.st0{fill:#231815;}
</style>
<path class="st0" d="M366.9,355.4c-0.2,0-0.6,0.2-1,0.5c-1.5,1.1-3.3,1.6-5.3,1.6c-1.3,0-3.1-0.9-5.2-2.7l-2.2-1.9l-0.5-0.5
	l-3.4-2.9c-1-0.8-2.7-2-5.2-3.6c1.7-0.5,3.2-1,4.7-1.7c1.5-0.7,2.8-1.4,4-2.3c3.8-2.8,6.9-6.9,9.1-12.2c2-4.8,3.1-10.1,3.3-15.8
	c0-0.5,0-1.1,0-1.7c0-9.9-2.4-18.1-7.2-24.3c-4.8-6.3-11-9.4-18.6-9.4c-8.6,0-15.3,3.7-20,11.2c-4,6.3-6,14-6,23c0,0.4,0,0.8,0,1.2
	c0.2,10.8,3.8,19.7,10.8,26.7c-1,0.5-1.9,1.4-2.7,2.6l-1.2-0.3c-2.4-0.6-4.6-2.3-6.6-5.1l-17.5-23.9l-1.5-2.1
	c-0.6-0.8-0.9-1.5-0.9-2c0-0.4,0.3-0.9,0.8-1.5l12.5-14.8c6.2-7.3,10.4-11.3,12.6-12c1.2-0.4,1.8-0.8,1.8-1.3
	c-0.1-0.6-0.4-0.9-1.1-0.9c-0.2,0-0.5,0.1-1.1,0.2c-0.4,0.1-1.5,0.2-3,0.2h-2.8l-3.4-0.1c-1.3,0-2.5-0.1-3.5-0.2
	c-0.4-0.1-0.8-0.1-1-0.1c-0.7,0-1.1,0.4-1.1,1c0,0.6,0.6,1,1.7,1.2c1.7,0.4,2.6,1.4,2.6,2.8c0,1.7-1.2,3.9-3.6,6.7l-15.7,18.3
	l-0.5,0.6l-0.6,0.5c-0.2,0-0.3-0.3-0.3-1v-18.7c0-3.2,0.2-5.4,0.6-6.5c0.4-1,1.3-2,2.9-2.9c0.6-0.3,0.9-0.7,0.9-1.1
	c0-0.6-0.3-0.9-0.9-0.9c-0.2,0-0.8,0.1-1.8,0.3c-0.5,0.1-1.2,0.1-1.9,0.1l-2.8,0.1l-1.4,0.1c-2.7,0-4.7-0.1-5.9-0.3
	c-0.5-0.1-0.9-0.2-1.3-0.2c-0.7,0-1,0.4-1,1c0,0.5,0.4,0.8,1,1l1.8,0.5c1.5,0.5,2.6,1.4,3.2,2.7c0.5,1.4,0.8,3.8,0.8,7.2
	c0,13.6,0,27.1,0,40.7c0,4-0.3,6.8-0.9,8.5c-0.1,0.4-0.2,0.7-0.4,1c-0.4-0.3-0.7-0.6-1-0.9c-0.7-1-1.7-3.4-2.8-7.2l-0.8-2.6
	l-5.2-17.3l-10.6-35.1c-0.3-1-0.6-1.4-1-1.4c-0.4,0-0.8,0.4-1.1,1.4L246.3,314l-6.7,19.2l-1.1,3.1c-0.5,1.4-1.2,2.9-2,4.2
	s-1.5,2.1-2,2.3l-1.4,0.5c-0.4,0.2-0.6,0.5-0.6,1v0.1c0,0.6,0.3,0.9,1,0.9c0.1,0,0.8-0.1,2-0.3c0.4-0.1,0.9-0.1,1.6-0.1
	c1.5,0,2.8,0,4,0.1l3.5,0.3c0.5,0,0.9,0,1.2,0c0.7,0,1-0.3,1-0.8c0-0.1,0-0.1,0-0.2c-0.1-0.5-0.4-0.8-1.1-1c-1.7-0.5-2.8-1-3.4-1.7
	c-0.6-0.6-0.9-1.7-0.9-3.2s0.5-3.9,1.6-7.1l2.4-7c0.8-2.2,1.4-3.4,1.8-3.8c0.5-0.4,1.6-0.6,3.4-0.6h13.3c1.4,0,2.2,0.1,2.5,0.4
	c0.3,0.2,0.7,1.3,1.2,3l1.8,6.3c1.5,5,2.2,8.3,2.2,10c0,1.8-0.6,2.9-1.8,3.2l-1.2,0.3c-0.6,0.1-0.9,0.5-0.9,1c0.1,0.7,0.4,1,1,1
	c0.2,0,0.6-0.1,1.1-0.2c0.9-0.2,3-0.3,6.4-0.3c1.8,0,3.4,0,4.7,0c1,0.1,10.6,0.5,11.4,0.6c1,0.1,1.6,0.2,2,0.2
	c0.6,0.1,0.9-0.3,0.9-0.9c0-0.2-0.1-0.3-0.1-0.4c-0.1-0.3-0.5-0.6-1-0.7c-2.7-0.6-4.4-1.4-5.2-2.6c-0.7-1.1-1.1-3.6-1.1-7.2v-17.4
	c0-0.7,0.3-1.1,0.7-1.1c0.3,0,0.6,0.1,0.9,0.5l0.7,1l19.7,26.3l0.6,0.9c0.1,0.1,0.1,0.2,0.2,0.3c0.6,0.7,1.3,1,2,1
	c0.4,0,1,0,1.7-0.1c0.7-0.1,1.7-0.1,3.2-0.1c1.3,0,2.2,0,2.8,0.1l-0.1,0.2c-1,2.2-1.6,4.5-1.8,6.8c-0.1,0.4-0.1,0.8-0.2,1.3
	c0.2,0.5,0.4,0.8,0.9,0.8c0.4,0,0.6-0.4,0.8-1.2c0-0.2,0.1-0.4,0.1-0.6c0.3-2.2,1.1-4.1,2.3-5.7c1.3-1.5,2.6-2.3,4.1-2.3
	c1.7,0,4.4,1.3,8,3.8l6.1,4.2c0.2,0.2,0.4,0.3,0.8,0.6c1,0.8,2.9,2.2,5.5,4.2c4,3,7.5,4.5,10.4,4.5c2.2,0,4.5-0.6,6.8-1.9
	c2.4-1.2,3.6-2.4,3.5-3.6C367.5,355.6,367.3,355.4,366.9,355.4z M264.8,313.8c0,0.8-0.6,1.2-1.8,1.2h-11.1h-1
	c-1.1,0-1.7-0.4-1.7-1.2c0,0,0,0,0-0.1c0.1-0.3,0.2-0.8,0.5-1.6l7.1-20.5c0.2-0.6,0.4-0.9,0.6-0.9c0.4,0.1,0.7,0.6,1,1.6l0.3,1
	l5.8,18.8C264.6,312.7,264.9,313.4,264.8,313.8z M327.6,335.9c-4.8-5.6-7.5-13-8.3-22.1c0-0.8-0.2-5.1-0.2-5.4c0-8,1.7-14.6,5-19.6
	c3.3-5.1,7.7-7.6,13-7.6c6.3,0,11.7,3.5,16.1,10.4c4,6.2,6.2,13.6,6.6,22.2c0.1,0.9,0.1,1.9,0.1,2.9c0,8-1.7,14.4-5,19.3
	c-3.4,4.9-7.7,7.4-13.1,7.4C336.6,343.4,331.8,340.9,327.6,335.9z"/>
<path class="st0" d="M407.2,343.1c-2.3-0.5-3.9-1.2-4.6-2.2c-0.7-1-1.7-3.4-2.8-7.2l-0.8-2.6l-5.2-17.3l-10.6-35.1
	c-0.3-1-0.6-1.4-1-1.4c-0.4,0-0.8,0.4-1.1,1.4l-12.2,35.1l-6.6,19.6l-1.1,3.1c-0.5,1.4-1.2,2.9-2,4.2s-1.5,2.1-2,2.3l-1.3,0.5
	c-0.4,0.2-0.6,0.5-0.6,1v0.1c0,0.6,0.4,0.9,1,0.9c0.1,0,0.8-0.1,2-0.3c0.4-0.1,0.9-0.1,1.6-0.1c1.6,0,2.9,0,4.1,0.1l3.5,0.3
	c0.5,0,0.9,0,1.2,0c0.7,0,1-0.3,1-0.8c0-0.1,0-0.1,0-0.2c-0.1-0.5-0.4-0.8-1.1-1c-1.7-0.5-2.8-1-3.4-1.7c-0.6-0.6-0.9-1.7-0.9-3.2
	s0.5-3.9,1.6-7.1l2.4-7c0.8-2.2,1.4-3.4,1.8-3.8c0.5-0.4,1.6-0.6,3.4-0.6h13.3c1.4,0,2.2,0.1,2.5,0.4c0.3,0.2,0.7,1.3,1.2,3l1.8,6.3
	c1.5,5,2.3,8.3,2.3,10c0,1.8-0.7,2.9-1.9,3.2l-1.1,0.3c-0.6,0.1-0.9,0.5-0.9,1c0,0.7,0.3,1,0.9,1c0.2,0,0.6-0.1,1.1-0.2
	c0.9-0.2,3-0.3,6.4-0.3c3.3,0,5.5,0.1,6.8,0.2c0.7,0.1,1.2,0.1,1.4,0.1c0.6,0,1-0.3,1-0.8C408.3,343.7,408,343.3,407.2,343.1z
	 M385.9,315h-11.1h-1c-1.1,0-1.7-0.4-1.7-1.2c0,0,0,0,0-0.1c0-0.3,0.1-0.8,0.4-1.6l7.1-20.5c0.2-0.6,0.4-0.9,0.6-0.9
	c0.3,0.1,0.6,0.6,0.9,1.6l0.3,1l5.8,18.8c0.1,0.6,0.3,1.3,0.5,1.7C387.7,314.6,387.1,315,385.9,315z"/>
</svg>
