<?xml version="1.0" encoding="utf-8"?>
<!-- Generator: Adobe Illustrator 21.1.0, SVG Export Plug-In . SVG Version: 6.00 Build 0)  -->
<svg version="1.1" id="图层_1" xmlns="http://www.w3.org/2000/svg" xmlns:xlink="http://www.w3.org/1999/xlink" x="0px" y="0px"
	 viewBox="0 0 640 640" style="enable-background:new 0 0 640 640;" xml:space="preserve">
<style type="text/css">
	.st0{fill:#231815;}
</style>
<path class="st0" d="M463,429.7c-0.6,0-1.8,0.6-3.1,1.5c-1.8,1.3-3.8,2.4-5.8,3.2c-3.2,1.2-6.7,1.7-10.5,1.7c-4,0-9.5-2.8-15.9-8.3
	L421,422l-1.5-1.5l-10.4-8.9c-1.8-1.5-4.3-3.3-7.6-5.5c-2.4-1.6-5.1-3.4-8.3-5.5c5.2-1.5,9.8-3.1,14.4-5.2s8.6-4.3,12.3-7.1
	c9.7-7.1,17.9-17,24.2-29.4c1.3-2.6,2.6-5.3,3.7-8c4.8-11.5,7.9-23.9,9.3-37.2c0.4-3.7,0.7-7.5,0.8-11.3c0-1.5,0-3.4,0-5.2
	c0-10.5-0.9-20.4-2.7-29.7c-1.4-7.3-3.3-14.1-5.8-20.5c-3.5-9-8-17.1-13.6-24.3c-4.1-5.4-8.6-10.1-13.4-13.9
	c-7-5.6-14.6-9.6-23-12.1c-6.4-1.9-13.3-2.8-20.6-2.8c-9.9,0-19,1.6-27.2,4.8c-8.2,3.2-15.6,8-22.2,14.5c-4.4,4.3-8.3,9.3-11.9,15.1
	c-4.7,7.4-8.5,15.4-11.4,23.9c-3.3,9.9-5.5,20.5-6.4,32c-0.4,4.7-0.6,9.6-0.6,14.6c0,1.2,0,2.5,0,3.7c0.3,15.1,2.7,29.1,7.4,41.8
	c3.8,10.5,9.2,20.2,16,29.1c3,3.8,6.2,7.5,9.7,11.1c-3.1,1.5-5.8,4.3-8.3,8l-3.7-0.9c-4.1-1-8-3.1-11.8-6.2
	c-2.9-2.5-5.7-5.6-8.4-9.4l-13.5-18.5l-11.2-15.3l-9.9-13.6l-10.7-14.6l-8.3-11.3l-4.6-6.4c-1.8-2.5-2.8-4.6-2.8-6.1
	c0-1.2,0.9-2.8,2.5-4.6l6.8-8.1l10.7-12.7l10.2-12.1l10.6-12.5c12.1-14.3,21.7-24.4,28.8-30.5c4.1-3.5,7.3-5.6,9.8-6.3
	c3.7-1.2,5.5-2.5,5.5-4c-0.3-1.8-1.2-2.8-3.4-2.8c-0.6,0-1.5,0.3-3.4,0.6c-1.2,0.3-4.6,0.6-9.2,0.6h-8.6l-10.4-0.3
	c-4,0-7.7-0.3-10.7-0.6c-1.2-0.3-2.5-0.3-3.1-0.3c-2.1,0-3.4,1.2-3.4,3.1c0,1.8,1.8,3.1,5.2,3.7c2.3,0.5,4.1,1.4,5.4,2.6
	c1.7,1.5,2.6,3.6,2.6,6c0,2-0.5,4.2-1.6,6.7c-1.7,4-4.9,8.6-9.4,13.8l-7.2,8.4l-11.1,12.9l-11.2,13l-10,11.6l-8.7,10.2l-1.5,1.8
	l-1.8,1.5c-0.6,0-0.9-0.9-0.9-3.1v-12.3v-15.5v-16.2v-13.4c0-4.6,0.1-8.5,0.4-11.7c0.3-3.7,0.8-6.4,1.4-8.2c0.6-1.5,1.6-3.1,3-4.5
	c1.5-1.5,3.4-3,5.9-4.4c1.8-0.9,2.8-2.1,2.8-3.4c0-1.8-0.9-2.8-2.8-2.8c-0.6,0-2.5,0.3-5.5,0.9c-1.5,0.3-3.7,0.3-5.8,0.3l-8.6,0.3
	l-4.3,0.3c-8.3,0-14.4-0.3-18.1-0.9c-1.5-0.3-2.8-0.6-4-0.6c-2.1,0-3.1,1.2-3.1,3.1c0,1.5,1.2,2.5,3.1,3.1l5.5,1.5
	c2,0.7,3.8,1.6,5.4,2.8c1.9,1.5,3.4,3.3,4.4,5.5c0.8,2.1,1.4,5.1,1.8,8.8s0.7,8.1,0.7,13.3c0,3.9,0,7.7,0,11.5c0,5.3,0,10.6,0,15.8
	c0,6,0,12,0,18.1c0,12.7,0,25.4,0,38c0,13.7,0,27.5,0,41.3c0,12.3-0.9,20.9-2.8,26.1c-0.3,1.2-0.6,2.1-1.2,3.1
	c-1.2-0.9-2.1-1.8-3.1-2.8c-1.2-1.7-2.6-4.7-4.3-9.1c-1.3-3.5-2.8-7.8-4.3-13l-2.5-8l-4.8-16.1l-4.9-16.3l-4-13.3l-2.2-7.4
	l-6.2-20.6l-5.4-17.8l-4.7-15.7l-6.5-21.6l-1.8-5.8l-1.8-6l-1.9-6.4l-2.1-7.1l-2-6.7c-0.9-3.1-1.8-4.3-3.1-4.3
	c-1.2,0-2.5,1.2-3.4,4.3l-2.5,7.1l-3,8.6l-2.5,7.3l-2.7,7.9l-2.9,8.4l-3,8.6l-3,8.7l-2.2,6.4l-2.2,6.3l-3.3,9.4l-2.6,7.4l-3.9,11.2
	l-3.5,10.1l-4,11.5l-3.7,10.5l-3.2,9.1l-3.1,8.9l-3.5,10l-3.1,8.8l-3.4,9.5c-1.5,4.3-3.7,8.9-6.1,12.9c-2.5,4-4.6,6.4-6.1,7.1
	l-4.3,1.5c-1.2,0.6-1.8,1.5-1.8,3.1v0.3c0,1.8,0.9,2.8,3.1,2.8c0.3,0,2.5-0.3,6.1-0.9c1.2-0.3,2.8-0.3,4.9-0.3c4.6,0,8.6,0,12.3,0.3
	l10.7,0.9c1.5,0,2.8,0,3.7,0c2.1,0,3.1-0.9,3.1-2.5c0-0.3,0-0.3,0-0.6c-0.3-1.5-1.2-2.5-3.4-3.1c-5.2-1.5-8.6-3.1-10.4-5.2
	c-1.8-1.8-2.8-5.2-2.8-9.8c0-2.3,0.4-5.3,1.2-8.9c0.8-3.6,2-8,3.7-12.9l4.8-13.8l2.6-7.7c2.5-6.7,4.3-10.4,5.5-11.7
	c1.5-1.2,4.9-1.8,10.4-1.8h40.8c4.3,0,6.7,0.3,7.7,1.2c0.9,0.6,2.1,4,3.7,9.2l2.7,9.5l2.8,9.8c1.4,4.7,2.6,9,3.6,12.7
	c2.1,8.4,3.1,14.4,3.1,18c0,5.5-1.8,8.9-5.5,9.8l-3.7,0.9c-1.8,0.3-2.8,1.5-2.8,3.1c0.3,2.1,1.2,3.1,3.1,3.1c0.6,0,1.8-0.3,3.4-0.6
	c1.7-0.4,4.7-0.6,9-0.8c2.9-0.1,6.4-0.1,10.6-0.1c2.3,0,4.5,0,6.5,0c2.9,0,5.5,0,7.9,0c3.1,0.3,32.5,1.5,35,1.8
	c3.1,0.3,4.9,0.6,6.1,0.6c1.8,0.3,2.8-0.9,2.8-2.8c0-0.6-0.3-0.9-0.3-1.2c-0.3-0.9-1.5-1.8-3.1-2.1c-8.3-1.8-13.5-4.3-15.9-8
	c-2.1-3.4-3.4-11-3.4-22.1v-18.6v-13.9v-10.4v-10.4c0-2.1,0.9-3.4,2.1-3.4c0.9,0,1.8,0.3,2.8,1.5l2.1,3.1l7.4,9.9l8.1,10.9l7.6,10.2
	l8.4,11.3l9.7,13l10.9,14.6l8.2,11l1.8,2.8c0.3,0.3,0.3,0.6,0.6,0.9c1.8,2.1,4,3.1,6.1,3.1c1.2,0,3.1,0,5.2-0.3s5.2-0.3,9.8-0.3
	c4,0,6.7,0,8.6,0.3l-0.3,0.6c-1.5,3.4-2.8,6.8-3.7,10.3s-1.5,7-1.8,10.6c-0.3,1.2-0.3,2.5-0.6,4c0.6,1.5,1.2,2.5,2.8,2.5
	c1.2,0,1.8-1.2,2.5-3.7c0-0.6,0.3-1.2,0.3-1.8c0.4-3.4,1.3-6.5,2.5-9.4c1.2-2.9,2.8-5.6,4.6-8.1c1.4-1.6,2.8-2.9,4.2-4
	c2.7-2,5.4-3.1,8.4-3.1c3.5,0,8.3,1.8,14.4,5.2c3.1,1.7,6.4,3.9,10.1,6.5l9.6,6.6l9.1,6.3c0.6,0.6,1.2,0.9,2.5,1.8
	c1.5,1.2,3.7,2.9,6.5,4.9c2.9,2.2,6.4,4.8,10.4,8c6.1,4.5,11.7,7.9,17,10.2c5.4,2.4,10.4,3.6,14.9,3.6c3.4,0,6.8-0.4,10.3-1.4
	c3.5-0.9,7-2.4,10.6-4.4c7.4-3.7,11-7.4,10.7-11C464.9,430.3,464.2,429.7,463,429.7z M149.9,302.1c0,2.5-1.8,3.7-5.5,3.7h-34h-3.1
	c-3.4,0-5.2-1.2-5.2-3.7c0,0,0,0,0-0.3c0.3-0.9,0.6-2.5,1.5-4.9l21.8-62.9c0.6-1.8,1.2-2.8,1.8-2.8c1.2,0.3,2.1,1.8,3.1,4.9l0.9,3.1
	l17.8,57.7C149.3,298.7,150.2,300.9,149.9,302.1z M342.5,369.9c-14.7-17.2-23-39.9-25.5-67.8c0-2.5-0.6-15.6-0.6-16.6
	c0-24.5,5.2-44.8,15.3-60.1c10.1-15.6,23.6-23.3,39.9-23.3c19.3,0,35.9,10.7,49.4,31.9c12.3,19,19,41.7,20.2,68.1
	c0.3,2.8,0.3,5.8,0.3,8.9c0,24.5-5.2,44.2-15.3,59.2c-10.4,15-23.6,22.7-40.2,22.7C370.1,392.9,355.4,385.2,342.5,369.9z"/>
<path class="st0" d="M586.6,392c-7.1-1.5-12-3.7-14.1-6.7c-1.3-1.9-2.9-5.2-4.7-10.2c-1.2-3.3-2.5-7.3-3.9-11.9l-2.5-8l-4.1-13.9
	l-2.9-9.7l-4.7-15.6l-4.2-13.9l-2.2-7.2l-2.4-8.1l-2.5-8.3l-2.6-8.5l-3.8-12.6l-2.9-9.6l-3.1-10.3l-3.4-11.1l-2.7-9l-4.5-14.9
	l-2.4-8c-0.9-3.1-1.8-4.3-3.1-4.3s-2.5,1.2-3.4,4.3l-2.6,7.4l-3.7,10.8l-4,11.6l-5.1,14.8l-4.5,12.9l-4.9,14.2l-5.2,15l-7.3,21.1
	l-3,8.8l-4.2,12.6l-5.4,16.2l-4.3,12.7l-3.3,9.8l-3.4,9.5c-1.5,4.3-3.7,8.9-6.1,12.9c-2.5,4-4.6,6.4-6.1,7.1l-4,1.5
	c-1.2,0.6-1.8,1.5-1.8,3.1v0.3c0,1.8,1.2,2.8,3.1,2.8c0.3,0,2.5-0.3,6.1-0.9c1.2-0.3,2.8-0.3,4.9-0.3c4.9,0,8.9,0,12.6,0.3l10.7,0.9
	c1.5,0,2.8,0,3.7,0c2.1,0,3.1-0.9,3.1-2.5c0-0.3,0-0.3,0-0.6c-0.3-1.5-1.2-2.5-3.4-3.1c-5.2-1.5-8.6-3.1-10.4-5.2
	c-1.8-1.8-2.8-5.2-2.8-9.8c0-2.7,0.5-6.4,1.6-10.9c0.8-3.2,1.9-6.8,3.3-10.9l4.4-12.8l3-8.7c2.5-6.7,4.3-10.4,5.5-11.7
	c1.5-1.2,4.9-1.8,10.4-1.8h18.8h10.8h11.2c4.3,0,6.7,0.3,7.7,1.2c0.9,0.6,2.1,4,3.7,9.2l5.5,19.3c1.1,3.5,2,6.8,2.9,9.8
	c2.8,9.9,4.2,16.9,4.2,20.9c0,5.5-2.1,8.9-5.8,9.8l-3.4,0.9c-1.8,0.3-2.8,1.5-2.8,3.1c0,2.1,0.9,3.1,2.8,3.1c0.6,0,1.8-0.3,3.4-0.6
	c2-0.4,5.7-0.7,11.4-0.8c2.4-0.1,5.1-0.1,8.2-0.1c3.2,0,6.1,0,8.7,0.1c5.5,0.1,9.5,0.3,12.2,0.5c2.1,0.3,3.7,0.3,4.3,0.3
	c1.8,0,3.1-0.9,3.1-2.5C590,393.8,589.1,392.6,586.6,392z M521.3,305.8h-34h-3.1c-3.4,0-5.2-1.2-5.2-3.7c0,0,0,0,0-0.3
	c0-0.9,0.3-2.5,1.2-4.9L502,234c0.6-1.8,1.2-2.8,1.8-2.8c0.9,0.3,1.8,1.8,2.8,4.9l0.9,3.1l17.8,57.7c0.3,1.8,0.9,4,1.5,5.2
	C526.8,304.6,525,305.8,521.3,305.8z"/>
</svg>
