<?xml version="1.0" encoding="utf-8"?>
<!-- Generator: Adobe Illustrator 21.1.0, SVG Export Plug-In . SVG Version: 6.00 Build 0)  -->
<svg version="1.1" id="图层_1" xmlns="http://www.w3.org/2000/svg" xmlns:xlink="http://www.w3.org/1999/xlink" x="0px" y="0px"
	 viewBox="0 0 800 468" style="enable-background:new 0 0 800 468;" xml:space="preserve">
<style type="text/css">
	.st0{fill:#EBEBEB;}
</style>
<path class="st0" d="M515.2,138.8v61.3H583v12.4h-67.8v70.3h89.7v11.4H441.6v-11.4h61V136.1L515.2,138.8z"/>
<polygon class="st0" points="796.1,156.5 696.1,156.5 703.1,136.7 693.1,136.7 674.4,188.6 684.6,188.6 692.6,166.2 796.1,166.2 "/>
<polygon class="st0" points="669.3,188.6 658.4,188.6 642,142.5 652.8,142.5 "/>
<polygon class="st0" points="655.6,220.5 644.7,220.5 630.3,181.2 641.2,181.2 "/>
<polygon class="st0" points="624.1,298 634.8,298 657.4,235.6 646.7,235.6 "/>
<g>
	<polygon class="st0" points="783.8,187.9 783.8,188 783.8,188 	"/>
	<path class="st0" d="M782,235.7h18v-9.7h-17.8c0-1,0.1-3.4,0.3-6.5l1.3-31.5l0,0c0-0.1,0-0.3,0-0.3h-3.3h-0.7v-0.1h-82v0.1h-3.1
		h-0.3c-0.4,4.1-0.8,8.1-1.3,12.2l-3.4,26.1H668v9.7h20.5l-7.2,55.9l9.7,2.7l1.3-10.5h0.5v0.1h77.3l-0.8,19l9.9-6l0.5-12.9h18.7
		v-9.7h-18.3l0.9-22.2C781.4,247.1,781.7,241.6,782,235.7z M703.3,197.3h23.3l7.1,19.6h10.8l-7.1-19.6h36.5l-1.3,28.8h-72.9
		L703.3,197.3z M693.5,274.4l3.8-29.8c0.7-5,2.6-9,9.4-8.9h5.9h11.9l10.5,28.9h10.7l-10.3-28.9h36.9l-1.7,38.7H693.5z"/>
</g>
<path class="st0" d="M325.4,319.5c-0.7,0.1-1.4,0.4-2.5,1.2c-3.5,2.5-7.8,3.8-12.8,3.8c-3.1,0-7.3-2.1-12.4-6.4l-5.4-4.4l-1.3-1.2
	l-8.1-7.1c-2.4-1.8-6.4-4.8-12.3-8.6c4.1-1,7.7-2.4,11.2-3.9c3.4-1.4,6.5-3.4,9.4-5.5c9.3-6.8,16.5-16.6,21.8-29.3
	c4.8-11.5,7.5-24.1,7.8-37.8c0.1-1.3,0.1-2.7,0.1-4.1c0-23.8-5.6-43.1-17.1-58c-11.4-14.9-26.3-22.4-44.4-22.4
	c-20.5,0-36.3,8.9-47.7,26.8c-9.4,15.2-14.2,33.5-14.2,54.9c0,0.9,0,1.8,0,2.9c0.7,25.8,9.3,46.9,25.9,63.7
	c-2.4,1.2-4.6,3.4-6.5,6.3l-3-0.8c-5.6-1.4-11-5.5-15.8-12.2l-41.8-57l-3.7-5c-1.4-2-2.2-3.7-2.1-4.8c0.1-0.9,0.8-2.2,2-3.7
	l29.9-35.3c14.9-17.4,25-27.1,30.2-28.8c2.9-0.9,4.3-2,4.2-3.1c-0.1-1.4-0.9-2.2-2.5-2.2c-0.4,0-1.3,0.1-2.7,0.4
	c-1.2,0.3-3.7,0.4-7.3,0.4l-6.5,0.1l-8.1-0.3c-3,0-5.8-0.1-8.2-0.4c-1-0.1-1.8-0.3-2.4-0.3c-1.8,0-2.7,0.8-2.7,2.4
	c0,1.4,1.3,2.4,3.9,2.9c4.3,0.9,6.3,3.3,6.3,6.7c0,4.1-2.9,9.3-8.6,16.1l-37.6,43.8l-1.3,1.3l-1.4,1.3c-0.5,0-0.8-0.8-0.8-2.4V165
	c0-7.7,0.4-12.9,1.4-15.6c0.9-2.6,3.3-5,7.1-7.1c1.4-0.8,2.1-1.7,2.1-2.6c0-1.4-0.7-2.2-2.1-2.1c-0.5,0-2,0.3-4.3,0.7
	c-1.3,0.1-2.7,0.1-4.6,0.1l-6.5,0.3l-3.3,0.1c-6.4,0-11.1-0.3-14.1-0.8c-1.2-0.3-2.2-0.4-3.1-0.4c-1.6,0-2.4,0.8-2.4,2.4
	c0,1.2,0.8,1.8,2.4,2.4l4.3,1.2c3.8,1.2,6.3,3.3,7.7,6.5c1.3,3.3,2,8.9,2,17.1v53.5l0,0v43.7c0,9.5-0.8,16.3-2.2,20.4
	c-0.3,0.9-0.7,1.7-1.2,2.4c-1-0.7-1.8-1.3-2.5-2.1c-1.8-2.2-4.1-7.8-6.8-17.1l-2-6.1l-12.4-41.2l-24.8-83.9
	c-0.7-2.2-1.4-3.3-2.4-3.3c-0.9,0-1.8,1.2-2.5,3.4l-29.1,83.8L21,266.1l-2.5,7.6c-1.3,3.5-2.9,6.8-5,10.1c-2,3.3-3.5,5.1-4.7,5.5
	l-3.3,1.3c-0.9,0.4-1.4,1.2-1.4,2.4v0.1c0,1.4,0.8,2.2,2.4,2.2c0.3,0,1.8-0.3,4.8-0.8c0.9-0.1,2.2-0.1,3.9-0.1
	c3.7,0,6.9,0.1,9.7,0.3l8.4,0.7c1.3,0.1,2.4,0.1,3,0.1c1.7,0,2.5-0.7,2.5-2c-0.1-0.1-0.1-0.3-0.1-0.4c-0.3-1.2-1.2-2-2.7-2.4
	c-4.1-1.2-6.8-2.5-8.1-4.1c-1.4-1.6-2.1-4.1-2.1-7.7c0-3.8,1.3-9.4,3.9-17l5.9-16.6c1.7-5.1,3.1-8.2,4.2-9.1c1-0.9,3.8-1.3,8.1-1.3
	h31.6c3.3,0,5.4,0.3,6,0.9c0.8,0.7,1.7,3,2.9,7.2l4.4,15c3.5,11.9,5.4,19.9,5.4,23.9c0,4.4-1.4,7.1-4.4,7.7l-2.7,0.8
	c-1.4,0.4-2.2,1.2-2.2,2.5c0,0.1,0,0.1,0,0.1c0,1.6,0.8,2.4,2.2,2.4c0.5,0,1.4-0.1,2.7-0.4c2-0.4,7.1-0.7,15.2-0.7c4.2,0,8,0,11.1,0
	c2.2,0.1,25.4,1,27.2,1.3c2.4,0.3,3.9,0.5,4.8,0.7c1.4,0.1,2.2-0.7,2.1-2.2c0-0.3-0.1-0.7-0.1-0.8c-0.4-0.8-1.2-1.3-2.5-1.7
	c-6.4-1.3-10.6-3.4-12.4-6.3s-2.7-8.6-2.7-17.3v-41.6c0-1.7,0.7-2.6,1.7-2.6c0.8,0,1.4,0.4,2.2,1.3l1.7,2.5l46.9,62.9l1.4,2.1
	c0.1,0.3,0.4,0.4,0.5,0.7c1.3,1.6,2.9,2.4,4.6,2.4c0.9,0,2.4-0.1,4.1-0.3c1.6-0.1,4.1-0.3,7.6-0.3c3.3,0,5.5,0,6.8,0.1l-0.3,0.5
	c-2.7,5.6-4.3,11.5-4.4,17.3c0,0.3,0,0.7,0,0.8c0.1,1.8,0.8,2.7,2.2,2.7c0.9,0,1.6-0.9,2-2.9c0.1-0.4,0.1-0.8,0.3-1.3
	c0.7-5.4,2.5-9.8,5.5-13.6c3-3.8,6.1-5.6,9.8-5.6c4.1,0,10.5,3,19.2,9l14.6,10.2c0.4,0.3,0.9,0.7,1.8,1.3c2.5,1.8,6.8,5.1,13.1,9.9
	c9.4,7.2,17.6,10.8,24.7,10.8c5.1,0,10.6-1.4,16.2-4.4s8.4-5.9,8.2-8.6C327,319.9,326.4,319.4,325.4,319.5z M77.4,223.9H51l-2.4-0.1
	c-2.7,0-4.1-1-4.1-3c0-0.1,0-0.1,0-0.3c0.1-0.8,0.4-2,1-3.9l17.1-49c0.5-1.4,0.9-2.2,1.4-2.2c0.8,0.1,1.7,1.3,2.4,3.8l0.7,2.4
	l13.9,44.8l0.4,2c0.1,0.8,0.3,1.4,0.4,2c0.1,0.1,0.1,0.4,0.1,0.5C81.9,222.9,80.3,223.9,77.4,223.9z M231.7,273.4
	c-11.4-13.5-18-31-19.7-52.8c-0.4-4.2-0.5-8.5-0.5-12.9c0-19.2,3.9-34.9,11.9-46.9s18.3-18,31.1-18c15,0,27.8,8.2,38.4,24.7
	c9.4,14.9,14.6,32.5,15.7,53.2c0.1,2.4,0.1,4.6,0.1,6.8c0,19-3.9,34.5-11.9,46.1c-7.8,11.8-18.3,17.6-31.1,17.6
	C253.1,291.2,241.9,285.2,231.7,273.4z"/>
<path class="st0" d="M421.7,290.3c-5.6-1.3-9.3-3-11-5.4c-1.8-2.2-4.1-7.8-6.8-17.1l-2-6.1l-12.4-41.2l-25.2-83.9
	c-0.7-2.2-1.4-3.3-2.4-3.3s-1.8,1.2-2.5,3.4l-29.1,83.8l-16.1,45.4l-2.5,7.6c-1.3,3.5-2.9,6.8-5,10.1c-2,3.3-3.5,5.1-4.7,5.5
	l-3.3,1.3c-0.9,0.4-1.4,1.2-1.4,2.4v0.1c0,1.4,0.8,2.2,2.4,2.2c0.3,0,1.8-0.3,4.8-0.8c0.9-0.1,2.4-0.1,3.9-0.1
	c3.7,0,6.9,0.1,9.7,0.3l8.4,0.7c1.3,0.1,2.4,0.1,3,0.1c1.7,0,2.5-0.7,2.5-2c0-0.1,0-0.3,0-0.4c-0.3-1.2-1.2-2-2.7-2.4
	c-4.1-1.2-6.8-2.5-8.1-4.1c-1.4-1.6-2.1-4.1-2.1-7.7c0-3.8,1.3-9.4,3.9-17l5.9-16.6c1.7-5.1,3.1-8.2,4.2-9.1c1-0.9,3.8-1.3,8.1-1.3
	h31.6c3.3,0,5.4,0.3,6,0.9c0.8,0.7,1.7,3,2.9,7.2l4.4,15c3.5,11.9,5.4,19.9,5.4,23.9c0,4.4-1.4,7.1-4.4,7.7l-2.7,0.8
	c-1.4,0.4-2.2,1.2-2.2,2.5v0.1c0,1.6,0.8,2.4,2.2,2.4c0.7,0,1.4-0.1,2.7-0.4c2-0.4,7.1-0.7,15.2-0.7c7.7,0,13.1,0.1,16.2,0.5
	c1.7,0.1,2.7,0.3,3.3,0.3c1.6,0,2.4-0.7,2.5-1.8C424.3,291.6,423.6,290.6,421.7,290.3z M370.6,224h-26.4l-2.4-0.1
	c-2.7,0-4.1-1-4.1-3c0-0.1,0-0.1,0-0.3c0.1-0.8,0.4-2.1,1.2-3.9l17.1-49c0.5-1.4,0.9-2.2,1.4-2.2c0.8,0.1,1.6,1.3,2.2,3.8l0.7,2.4
	l13.7,44.8l0.4,2c0.1,0.8,0.3,1.4,0.4,2c0,0.3,0,0.4,0.1,0.7C375.1,223.1,373.5,224,370.6,224z"/>
</svg>
