<?xml version="1.0" encoding="utf-8"?>
<!-- Generator: Adobe Illustrator 21.1.0, SVG Export Plug-In . SVG Version: 6.00 Build 0)  -->
<svg version="1.1" id="图层_1" xmlns="http://www.w3.org/2000/svg" xmlns:xlink="http://www.w3.org/1999/xlink" x="0px" y="0px"
	 viewBox="0 0 640 374.4" style="enable-background:new 0 0 640 374.4;" xml:space="preserve">
<style type="text/css">
	.st0{display:none;fill:#EBEBEB;}
	.st1{fill:#EBEBEB;}
</style>
<path class="st0" d="M-4104.4-1627.7c-2.1,13-14.3,23.6-27.3,23.6h-2.4c-13,0-21.9-10.6-19.9-23.6l10.9-66.5
	c2.1-13,14.3-23.6,27.3-23.6h2.4c13,0,21.9,10.6,19.9,23.6L-4104.4-1627.7z"/>
<path class="st1" d="M408.6,114.3v46.9h51.9v9.5h-51.9v53.8h68.6v8.7H352.3v-8.7H399V112.3L408.6,114.3z"/>
<polygon class="st1" points="623.5,127.9 547,127.9 552.4,112.7 544.7,112.7 530.4,152.4 538.2,152.4 544.3,135.3 623.5,135.3 "/>
<polygon class="st1" points="526.5,152.4 518.2,152.4 505.6,117.2 513.9,117.2 "/>
<polygon class="st1" points="516,176.8 507.7,176.8 496.7,146.8 505,146.8 "/>
<polygon class="st1" points="491.9,236.1 500.1,236.1 517.4,188.4 509.2,188.4 "/>
<g>
	<polygon class="st1" points="614.1,151.9 614.1,152 614.1,152 	"/>
	<path class="st1" d="M612.7,188.5h13.8v-7.4h-13.6c0-0.8,0.1-2.6,0.2-5l1-24.1h0c0-0.1,0-0.2,0-0.2h-2.5h-0.5v-0.1h-62.7v0.1H546
		h-0.2c-0.3,3.1-0.6,6.2-1,9.3l-2.6,20h-16.7v7.4h15.7l-5.5,42.8l7.4,2.1l1-8h0.4v0.1h59.1L603,240l7.6-4.6l0.4-9.9h14.3v-7.4h-14
		l0.7-17C612.3,197.2,612.5,193,612.7,188.5z M552.5,159.1h17.8l5.4,15h8.3l-5.4-15h27.9l-1,22h-55.8L552.5,159.1z M545,218.1
		l2.9-22.8c0.5-3.8,2-6.9,7.2-6.8h4.5h9.1l8,22.1h8.2l-7.9-22.1h28.2l-1.3,29.6H545z"/>
</g>
<path class="st1" d="M263.4,252.6c-0.5,0.1-1.1,0.3-1.9,0.9c-2.7,1.9-6,2.9-9.8,2.9c-2.4,0-5.6-1.6-9.5-4.9l-4.1-3.4l-1-0.9
	l-6.2-5.4c-1.8-1.4-4.9-3.7-9.4-6.6c3.1-0.8,5.9-1.8,8.6-3c2.6-1.1,5-2.6,7.2-4.2c7.1-5.2,12.6-12.7,16.7-22.4
	c3.7-8.8,5.7-18.4,6-28.9c0.1-1,0.1-2.1,0.1-3.1c0-18.2-4.3-33-13.1-44.4c-8.7-11.4-20.1-17.1-34-17.1c-15.7,0-27.8,6.8-36.5,20.5
	c-7.2,11.6-10.9,25.6-10.9,42c0,0.7,0,1.4,0,2.2c0.5,19.7,7.1,35.9,19.8,48.7c-1.8,0.9-3.5,2.6-5,4.8l-2.3-0.6
	c-4.3-1.1-8.4-4.2-12.1-9.3l-32-43.6l-2.8-3.8c-1.1-1.5-1.7-2.8-1.6-3.7c0.1-0.7,0.6-1.7,1.5-2.8l22.9-27
	c11.4-13.3,19.1-20.7,23.1-22c2.2-0.7,3.3-1.5,3.2-2.4c-0.1-1.1-0.7-1.7-1.9-1.7c-0.3,0-1,0.1-2.1,0.3c-0.9,0.2-2.8,0.3-5.6,0.3
	l-5,0.1l-6.2-0.2c-2.3,0-4.4-0.1-6.3-0.3c-0.8-0.1-1.4-0.2-1.8-0.2c-1.4,0-2.1,0.6-2.1,1.8c0,1.1,1,1.8,3,2.2
	c3.3,0.7,4.8,2.5,4.8,5.1c0,3.1-2.2,7.1-6.6,12.3l-28.8,33.5l-1,1l-1.1,1c-0.4,0-0.6-0.6-0.6-1.8v-34.1c0-5.9,0.3-9.9,1.1-11.9
	c0.7-2,2.5-3.8,5.4-5.4c1.1-0.6,1.6-1.3,1.6-2c0-1.1-0.5-1.7-1.6-1.6c-0.4,0-1.5,0.2-3.3,0.5c-1,0.1-2.1,0.1-3.5,0.1l-5,0.2
	l-2.5,0.1c-4.9,0-8.5-0.2-10.8-0.6c-0.9-0.2-1.7-0.3-2.4-0.3c-1.2,0-1.8,0.6-1.8,1.8c0,0.9,0.6,1.4,1.8,1.8l3.3,0.9
	c2.9,0.9,4.8,2.5,5.9,5c1,2.5,1.5,6.8,1.5,13.1V177l0,0v33.4c0,7.3-0.6,12.5-1.7,15.6c-0.2,0.7-0.5,1.3-0.9,1.8
	c-0.8-0.5-1.4-1-1.9-1.6c-1.4-1.7-3.1-6-5.2-13.1l-1.5-4.7L88,176.9l-19-64.2c-0.5-1.7-1.1-2.5-1.8-2.5c-0.7,0-1.4,0.9-1.9,2.6
	L43,176.9l-12.5,34.8l-1.9,5.8c-1,2.7-2.2,5.2-3.8,7.7c-1.5,2.5-2.7,3.9-3.6,4.2l-2.5,1c-0.7,0.3-1.1,0.9-1.1,1.8v0.1
	c0,1.1,0.6,1.7,1.8,1.7c0.2,0,1.4-0.2,3.7-0.6c0.7-0.1,1.7-0.1,3-0.1c2.8,0,5.3,0.1,7.4,0.2l6.4,0.5c1,0.1,1.8,0.1,2.3,0.1
	c1.3,0,1.9-0.5,1.9-1.5c-0.1-0.1-0.1-0.2-0.1-0.3c-0.2-0.9-0.9-1.5-2.1-1.8c-3.1-0.9-5.2-1.9-6.2-3.1c-1.1-1.2-1.6-3.1-1.6-5.9
	c0-2.9,1-7.2,3-13l4.5-12.7c1.3-3.9,2.4-6.3,3.2-7s2.9-1,6.2-1h24.2c2.5,0,4.1,0.2,4.6,0.7c0.6,0.5,1.3,2.3,2.2,5.5l3.4,11.5
	c2.7,9.1,4.1,15.2,4.1,18.3c0,3.4-1.1,5.4-3.4,5.9l-2.1,0.6c-1.1,0.3-1.7,0.9-1.7,1.9c0,0.1,0,0.1,0,0.1c0,1.2,0.6,1.8,1.7,1.8
	c0.4,0,1.1-0.1,2.1-0.3c1.5-0.3,5.4-0.5,11.6-0.5c3.2,0,6.1,0,8.5,0c1.7,0.1,19.4,0.8,20.8,1c1.8,0.2,3,0.4,3.7,0.5
	c1.1,0.1,1.7-0.5,1.6-1.7c0-0.2-0.1-0.5-0.1-0.6c-0.3-0.6-0.9-1-1.9-1.3c-4.9-1-8.1-2.6-9.5-4.8s-2.1-6.6-2.1-13.2v-31.8
	c0-1.3,0.5-2,1.3-2c0.6,0,1.1,0.3,1.7,1l1.3,1.9l35.9,48.1l1.1,1.6c0.1,0.2,0.3,0.3,0.4,0.5c1,1.2,2.2,1.8,3.5,1.8
	c0.7,0,1.8-0.1,3.1-0.2c1.2-0.1,3.1-0.2,5.8-0.2c2.5,0,4.2,0,5.2,0.1l-0.2,0.4c-2.1,4.3-3.3,8.8-3.4,13.2c0,0.2,0,0.5,0,0.6
	c0.1,1.4,0.6,2.1,1.7,2.1c0.7,0,1.2-0.7,1.5-2.2c0.1-0.3,0.1-0.6,0.2-1c0.5-4.1,1.9-7.5,4.2-10.4s4.7-4.3,7.5-4.3
	c3.1,0,8,2.3,14.7,6.9l11.2,7.8c0.3,0.2,0.7,0.5,1.4,1c1.9,1.4,5.2,3.9,10,7.6c7.2,5.5,13.5,8.3,18.9,8.3c3.9,0,8.1-1.1,12.4-3.4
	c4.3-2.3,6.4-4.5,6.3-6.6C264.6,252.9,264.2,252.5,263.4,252.6z M73.7,179.4H53.5l-1.8-0.1c-2.1,0-3.1-0.8-3.1-2.3
	c0-0.1,0-0.1,0-0.2c0.1-0.6,0.3-1.5,0.8-3l13.1-37.5c0.4-1.1,0.7-1.7,1.1-1.7c0.6,0.1,1.3,1,1.8,2.9l0.5,1.8l10.6,34.3l0.3,1.5
	c0.1,0.6,0.2,1.1,0.3,1.5c0.1,0.1,0.1,0.3,0.1,0.4C77.1,178.7,75.9,179.4,73.7,179.4z M191.7,217.3c-8.7-10.3-13.8-23.7-15.1-40.4
	c-0.3-3.2-0.4-6.5-0.4-9.9c0-14.7,3-26.7,9.1-35.9s14-13.8,23.8-13.8c11.5,0,21.3,6.3,29.4,18.9c7.2,11.4,11.2,24.9,12,40.7
	c0.1,1.8,0.1,3.5,0.1,5.2c0,14.5-3,26.4-9.1,35.3c-6,9-14,13.5-23.8,13.5C208.1,230.9,199.5,226.3,191.7,217.3z"/>
<path class="st1" d="M337.1,230.2c-4.3-1-7.1-2.3-8.4-4.1c-1.4-1.7-3.1-6-5.2-13.1l-1.5-4.7l-9.5-31.5l-19.3-64.2
	c-0.5-1.7-1.1-2.5-1.8-2.5c-0.7,0-1.4,0.9-1.9,2.6l-22.3,64.1l-12.3,34.7l-1.9,5.8c-1,2.7-2.2,5.2-3.8,7.7c-1.5,2.5-2.7,3.9-3.6,4.2
	l-2.5,1c-0.7,0.3-1.1,0.9-1.1,1.8v0.1c0,1.1,0.6,1.7,1.8,1.7c0.2,0,1.4-0.2,3.7-0.6c0.7-0.1,1.8-0.1,3-0.1c2.8,0,5.3,0.1,7.4,0.2
	l6.4,0.5c1,0.1,1.8,0.1,2.3,0.1c1.3,0,1.9-0.5,1.9-1.5c0-0.1,0-0.2,0-0.3c-0.2-0.9-0.9-1.5-2.1-1.8c-3.1-0.9-5.2-1.9-6.2-3.1
	c-1.1-1.2-1.6-3.1-1.6-5.9c0-2.9,1-7.2,3-13l4.5-12.7c1.3-3.9,2.4-6.3,3.2-7s2.9-1,6.2-1h24.2c2.5,0,4.1,0.2,4.6,0.7
	c0.6,0.5,1.3,2.3,2.2,5.5l3.4,11.5c2.7,9.1,4.1,15.2,4.1,18.3c0,3.4-1.1,5.4-3.4,5.9l-2.1,0.6c-1.1,0.3-1.7,0.9-1.7,1.9v0.1
	c0,1.2,0.6,1.8,1.7,1.8c0.5,0,1.1-0.1,2.1-0.3c1.5-0.3,5.4-0.5,11.6-0.5c5.9,0,10,0.1,12.4,0.4c1.3,0.1,2.1,0.2,2.5,0.2
	c1.2,0,1.8-0.5,1.9-1.4C339.1,231.2,338.5,230.5,337.1,230.2z M298,179.5h-20.2l-1.8-0.1c-2.1,0-3.1-0.8-3.1-2.3c0-0.1,0-0.1,0-0.2
	c0.1-0.6,0.3-1.6,0.9-3l13.1-37.5c0.4-1.1,0.7-1.7,1.1-1.7c0.6,0.1,1.2,1,1.7,2.9l0.5,1.8l10.5,34.3l0.3,1.5
	c0.1,0.6,0.2,1.1,0.3,1.5c0,0.2,0,0.3,0.1,0.5C301.4,178.8,300.2,179.5,298,179.5z"/>
<g id="Layer_2">
</g>
<g id="Layer_3">
</g>
</svg>
