<?xml version="1.0" encoding="utf-8"?>
<!-- Generator: Adobe Illustrator 21.1.0, SVG Export Plug-In . SVG Version: 6.00 Build 0)  -->
<svg version="1.1" id="图层_1" xmlns="http://www.w3.org/2000/svg" xmlns:xlink="http://www.w3.org/1999/xlink" x="0px" y="0px"
	 viewBox="0 0 640 640" style="enable-background:new 0 0 640 640;" xml:space="preserve">
<style type="text/css">
	.st0{fill:#231815;}
</style>
<path class="st0" d="M463,429.7c-0.6,0-1.8,0.6-3.1,1.5c-4.6,3.4-10.1,4.9-16.3,4.9c-4,0-9.5-2.8-15.9-8.3L421,422l-1.5-1.5
	l-10.4-8.9c-3.1-2.5-8.3-6.1-15.9-11c5.2-1.5,9.8-3.1,14.4-5.2s8.6-4.3,12.3-7.1c11.7-8.6,21.2-21.2,27.9-37.4
	c6.1-14.7,9.5-31,10.1-48.5c0-1.5,0-3.4,0-5.2c0-30.4-7.4-55.5-22.1-74.5c-14.7-19.3-33.7-28.8-57-28.8c-26.4,0-46.9,11.3-61.3,34.4
	c-12.3,19.3-18.4,42.9-18.4,70.5c0,1.2,0,2.5,0,3.7c0.6,33.1,11.7,60.4,33.1,81.9c-3.1,1.5-5.8,4.3-8.3,8l-3.7-0.9
	c-7.4-1.8-14.1-7.1-20.2-15.6l-53.7-73.3l-4.6-6.4c-1.8-2.5-2.8-4.6-2.8-6.1c0-1.2,0.9-2.8,2.5-4.6l38.3-45.4
	c19-22.4,31.9-34.7,38.6-36.8c3.7-1.2,5.5-2.5,5.5-4c-0.3-1.8-1.2-2.8-3.4-2.8c-0.6,0-1.5,0.3-3.4,0.6c-1.2,0.3-4.6,0.6-9.2,0.6
	h-8.6l-10.4-0.3c-4,0-7.7-0.3-10.7-0.6c-1.2-0.3-2.5-0.3-3.1-0.3c-2.1,0-3.4,1.2-3.4,3.1c0,1.8,1.8,3.1,5.2,3.7c5.2,1.2,8,4.3,8,8.6
	c0,5.2-3.7,12-11,20.5l-48.2,56.1l-1.5,1.8l-1.8,1.5c-0.6,0-0.9-0.9-0.9-3.1v-57.4c0-9.8,0.6-16.6,1.8-19.9c1.2-3.1,4-6.1,8.9-8.9
	c1.8-0.9,2.8-2.1,2.8-3.4c0-1.8-0.9-2.8-2.8-2.8c-0.6,0-2.5,0.3-5.5,0.9c-1.5,0.3-3.7,0.3-5.8,0.3l-8.6,0.3l-4.3,0.3
	c-8.3,0-14.4-0.3-18.1-0.9c-1.5-0.3-2.8-0.6-4-0.6c-2.1,0-3.1,1.2-3.1,3.1c0,1.5,1.2,2.5,3.1,3.1l5.5,1.5c4.6,1.5,8,4.3,9.8,8.3
	c1.5,4.3,2.5,11.7,2.5,22.1c0,41.7,0,83.1,0,124.8c0,12.3-0.9,20.9-2.8,26.1c-0.3,1.2-0.6,2.1-1.2,3.1c-1.2-0.9-2.1-1.8-3.1-2.8
	c-2.1-3.1-5.2-10.4-8.6-22.1l-2.5-8l-15.9-53.1L137,195.1c-0.9-3.1-1.8-4.3-3.1-4.3c-1.2,0-2.5,1.2-3.4,4.3L93.1,302.7l-20.5,58.9
	l-3.4,9.5c-1.5,4.3-3.7,8.9-6.1,12.9c-2.5,4-4.6,6.4-6.1,7.1l-4.3,1.5c-1.2,0.6-1.8,1.5-1.8,3.1v0.3c0,1.8,0.9,2.8,3.1,2.8
	c0.3,0,2.5-0.3,6.1-0.9c1.2-0.3,2.8-0.3,4.9-0.3c4.6,0,8.6,0,12.3,0.3l10.7,0.9c1.5,0,2.8,0,3.7,0c2.1,0,3.1-0.9,3.1-2.5
	c0-0.3,0-0.3,0-0.6c-0.3-1.5-1.2-2.5-3.4-3.1c-5.2-1.5-8.6-3.1-10.4-5.2c-1.8-1.8-2.8-5.2-2.8-9.8s1.5-12,4.9-21.8l7.4-21.5
	c2.5-6.7,4.3-10.4,5.5-11.7c1.5-1.2,4.9-1.8,10.4-1.8h40.8c4.3,0,6.7,0.3,7.7,1.2c0.9,0.6,2.1,4,3.7,9.2l5.5,19.3
	c4.6,15.3,6.7,25.5,6.7,30.7c0,5.5-1.8,8.9-5.5,9.8l-3.7,0.9c-1.8,0.3-2.8,1.5-2.8,3.1c0.3,2.1,1.2,3.1,3.1,3.1
	c0.6,0,1.8-0.3,3.4-0.6c2.8-0.6,9.2-0.9,19.6-0.9c5.5,0,10.4,0,14.4,0c3.1,0.3,32.5,1.5,35,1.8c3.1,0.3,4.9,0.6,6.1,0.6
	c1.8,0.3,2.8-0.9,2.8-2.8c0-0.6-0.3-0.9-0.3-1.2c-0.3-0.9-1.5-1.8-3.1-2.1c-8.3-1.8-13.5-4.3-15.9-8c-2.1-3.4-3.4-11-3.4-22.1v-53.4
	c0-2.1,0.9-3.4,2.1-3.4c0.9,0,1.8,0.3,2.8,1.5l2.1,3.1l60.4,80.7l1.8,2.8c0.3,0.3,0.3,0.6,0.6,0.9c1.8,2.1,4,3.1,6.1,3.1
	c1.2,0,3.1,0,5.2-0.3c2.1-0.3,5.2-0.3,9.8-0.3c4,0,6.7,0,8.6,0.3l-0.3,0.6c-3.1,6.7-4.9,13.8-5.5,20.9c-0.3,1.2-0.3,2.5-0.6,4
	c0.6,1.5,1.2,2.5,2.8,2.5c1.2,0,1.8-1.2,2.5-3.7c0-0.6,0.3-1.2,0.3-1.8c0.9-6.7,3.4-12.6,7.1-17.5c4-4.6,8-7.1,12.6-7.1
	c5.2,0,13.5,4,24.5,11.7l18.7,12.9c0.6,0.6,1.2,0.9,2.5,1.8c3.1,2.5,8.9,6.7,16.9,12.9c12.3,9.2,23,13.8,31.9,13.8
	c6.7,0,13.8-1.8,20.9-5.8c7.4-3.7,11-7.4,10.7-11C464.9,430.3,464.2,429.7,463,429.7z M149.9,302.1c0,2.5-1.8,3.7-5.5,3.7h-34h-3.1
	c-3.4,0-5.2-1.2-5.2-3.7c0,0,0,0,0-0.3c0.3-0.9,0.6-2.5,1.5-4.9l21.8-62.9c0.6-1.8,1.2-2.8,1.8-2.8c1.2,0.3,2.1,1.8,3.1,4.9l0.9,3.1
	l17.8,57.7C149.3,298.7,150.2,300.9,149.9,302.1z M342.5,369.9c-14.7-17.2-23-39.9-25.5-67.8c0-2.5-0.6-15.6-0.6-16.6
	c0-24.5,5.2-44.8,15.3-60.1c10.1-15.6,23.6-23.3,39.9-23.3c19.3,0,35.9,10.7,49.4,31.9c12.3,19,19,41.7,20.2,68.1
	c0.3,2.8,0.3,5.8,0.3,8.9c0,24.5-5.2,44.2-15.3,59.2c-10.4,15-23.6,22.7-40.2,22.7C370.1,392.9,355.4,385.2,342.5,369.9z"/>
<path class="st0" d="M586.6,392c-7.1-1.5-12-3.7-14.1-6.7c-2.1-3.1-5.2-10.4-8.6-22.1l-2.5-8l-15.9-53.1L513,194.5
	c-0.9-3.1-1.8-4.3-3.1-4.3s-2.5,1.2-3.4,4.3l-37.4,107.7l-20.2,60.1l-3.4,9.5c-1.5,4.3-3.7,8.9-6.1,12.9c-2.5,4-4.6,6.4-6.1,7.1
	l-4,1.5c-1.2,0.6-1.8,1.5-1.8,3.1v0.3c0,1.8,1.2,2.8,3.1,2.8c0.3,0,2.5-0.3,6.1-0.9c1.2-0.3,2.8-0.3,4.9-0.3c4.9,0,8.9,0,12.6,0.3
	l10.7,0.9c1.5,0,2.8,0,3.7,0c2.1,0,3.1-0.9,3.1-2.5c0-0.3,0-0.3,0-0.6c-0.3-1.5-1.2-2.5-3.4-3.1c-5.2-1.5-8.6-3.1-10.4-5.2
	c-1.8-1.8-2.8-5.2-2.8-9.8s1.5-12,4.9-21.8l7.4-21.5c2.5-6.7,4.3-10.4,5.5-11.7c1.5-1.2,4.9-1.8,10.4-1.8h40.8
	c4.3,0,6.7,0.3,7.7,1.2c0.9,0.6,2.1,4,3.7,9.2l5.5,19.3c4.6,15.3,7.1,25.5,7.1,30.7c0,5.5-2.1,8.9-5.8,9.8l-3.4,0.9
	c-1.8,0.3-2.8,1.5-2.8,3.1c0,2.1,0.9,3.1,2.8,3.1c0.6,0,1.8-0.3,3.4-0.6c2.8-0.6,9.2-0.9,19.6-0.9c10.1,0,16.9,0.3,20.9,0.6
	c2.1,0.3,3.7,0.3,4.3,0.3c1.8,0,3.1-0.9,3.1-2.5C590,393.8,589.1,392.6,586.6,392z M521.3,305.8h-34h-3.1c-3.4,0-5.2-1.2-5.2-3.7
	c0,0,0,0,0-0.3c0-0.9,0.3-2.5,1.2-4.9L502,234c0.6-1.8,1.2-2.8,1.8-2.8c0.9,0.3,1.8,1.8,2.8,4.9l0.9,3.1l17.8,57.7
	c0.3,1.8,0.9,4,1.5,5.2C526.8,304.6,525,305.8,521.3,305.8z"/>
</svg>
